# xmcd
# 
# Track frame offsets:
#     150
#     20402
#     35340
#     47517
#     61067
#     76287
#     91760
#     103752
#     119732
#     134012
#     151260
#     169405
#     183440
#     201460
#     213050
#     224517
# 
# Disc length: 3171
# 
# Revision: 2
# Processed by: cddbd v1.5.2PL0 Copyright (c) Steve Scherf et al.
# Submitted via: BonkEnc v1.0.8
# 
DISCID=e10c6110
DTITLE=Various Artist - Country Fire Vol. 2
DYEAR=1992
DGENRE=Country
TTITLE0=Alabama - Fire On Fire
TTITLE1=Joan Kennedy - Wild Again
TTITLE2=Restless Heart - You Can Depend On Me
TTITLE3=South Mountain - You Make Me Feel So High
TTITLE4=Ben Steneker - For Sure For Certain
TTITLE5=Moody Brothers - I Know You´re Gonna Cheat On Me
TTITLE6=Amanda Paige - Waiting In The Wings
TTITLE7=John Brack - Hot Shot
TTITLE8=Clint Black - This Nightlife
TTITLE9=Early Bird - The Sound Of Country Music
TTITLE10=Don Reed With Steve Piticco - One Way Rider
TTITLE11=Larry Mercey - True Blue
TTITLE12=Lucille Starr - Mississippi
TTITLE13=Dickey Lee - Dream Lover
TTITLE14=Straight Clean And Simple - What You Get Is What You See
TTITLE15=Dusty Stanton - Remember Me
EXTD=Koch International, 1992
EXTT0=
EXTT1=
EXTT2=
EXTT3=
EXTT4=
EXTT5=
EXTT6=
EXTT7=
EXTT8=
EXTT9=
EXTT10=
EXTT11=
EXTT12=
EXTT13=
EXTT14=
EXTT15=
PLAYORDER=
